<svg width="361" height="337" fill="none" xmlns="http://www.w3.org/2000/svg"><path d="M301.325 215.317c1.563 7.882-4.913 15.044-12.913 14.279L57.192 207.5c-8.622-.824-13.558-10.232-9.337-17.795l51.033-91.417a12 12 0 0 1 9.121-6.074l154.203-17.541a12 12 0 0 1 13.128 9.589l25.985 131.055Z" fill="url(#a)"/><path d="M302.266 129.559c1.449-5.09 7.804-6.792 11.604-3.11l38.43 37.248c3.905 3.784 2.192 10.38-3.06 11.788l-53.088 14.225c-5.252 1.407-10.033-3.45-8.544-8.679l14.658-51.472Z" fill="#FF6B00"/><g filter="url(#b)"><path d="M54.665 126.677c3.79-2.639 9.017-.185 9.407 4.417l3.308 39.018c.39 4.603-4.348 7.902-8.528 5.938l-35.445-16.644c-4.181-1.963-4.669-7.716-.878-10.355l32.136-22.374Z" fill="#fff"/></g><g clip-path="url(#c)" fill="#fff"><path d="M155.559 162.952h44.99a2.481 2.481 0 0 0 2.393-1.807l9.962-34.864a2.489 2.489 0 0 0-2.394-3.174h-60.7l-1.78-8.01a2.49 2.49 0 0 0-2.432-1.951H130.49a2.49 2.49 0 1 0 0 4.981h13.109l8.993 40.466c-2.646 1.151-4.504 3.784-4.504 6.849 0 4.119 3.351 7.471 7.471 7.471h44.99a2.49 2.49 0 0 0 2.491-2.49 2.49 2.49 0 0 0-2.491-2.491h-44.99a2.494 2.494 0 0 1-2.491-2.49 2.494 2.494 0 0 1 2.491-2.49Z"/><path d="M153.068 180.383c0 4.12 3.352 7.471 7.472 7.471 4.119 0 7.47-3.351 7.47-7.471 0-4.119-3.351-7.47-7.47-7.47-4.12 0-7.472 3.351-7.472 7.47ZM188.098 180.383c0 4.12 3.352 7.471 7.471 7.471 4.12 0 7.471-3.351 7.471-7.471 0-4.119-3.351-7.47-7.471-7.47-4.119 0-7.471 3.351-7.471 7.47Z"/></g><defs><linearGradient id="a" x1="287.519" y1="217.129" x2="302.777" y2="53.814" gradientUnits="userSpaceOnUse"><stop stop-color="#514FE2"/><stop offset="1" stop-color="#1158C4"/></linearGradient><clipPath id="c"><path fill="#fff" transform="translate(128 108)" d="M0 0h85v85H0z"/></clipPath><filter id="b" x=".968" y="102.294" width="99.838" height="97.31" filterUnits="userSpaceOnUse" color-interpolation-filters="sRGB"><feFlood flood-opacity="0" result="BackgroundImageFix"/><feColorMatrix in="SourceAlpha" values="0 0 0 0 0 0 0 0 0 0 0 0 0 0 0 0 0 0 127 0"/><feOffset dy="4"/><feGaussianBlur stdDeviation="8.5"/><feColorMatrix values="0 0 0 0 0.446615 0 0 0 0 0.528406 0 0 0 0 0.729167 0 0 0 0.4 0"/><feBlend in2="BackgroundImageFix" result="effect1_dropShadow"/><feBlend in="SourceGraphic" in2="effect1_dropShadow" result="shape"/></filter></defs></svg>