<svg width="20" height="20" fill="none" xmlns="http://www.w3.org/2000/svg"><path d="M16 0H4a4 4 0 0 0-4 4v12a4 4 0 0 0 4 4h12a4 4 0 0 0 4-4V4a4 4 0 0 0-4-4Z" fill="#0084B1"/><path d="M4.707 3.038a1.68 1.68 0 0 1 1.67 1.678c-.003.963-.803 1.69-1.681 1.67-.892.017-1.675-.727-1.675-1.677 0-.92.759-1.672 1.686-1.671ZM5.68 16.96H3.718a.461.461 0 0 1-.462-.46V8.126c0-.255.207-.461.462-.461H5.68c.255 0 .461.206.461.46V16.5a.461.461 0 0 1-.46.462ZM16.979 10.606A3.178 3.178 0 0 0 13.8 7.428h-.503a2.821 2.821 0 0 0-2.472 1.457c0 .002-.006.002-.008.002-.005 0-.02-.02-.02-.025V7.857a.191.191 0 0 0-.191-.191H8.157a.191.191 0 0 0-.191.191v8.912c0 .106.085.192.191.192h2.502a.191.191 0 0 0 .192-.191V11.62c0-.89.71-1.629 1.6-1.639.454-.005.866.177 1.162.474.293.293.475.697.475 1.144v5.17c0 .106.085.192.19.192h2.509a.191.191 0 0 0 .192-.19v-6.165Z" fill="#fff"/></svg>