<svg width="234" height="60" fill="none" xmlns="http://www.w3.org/2000/svg"><path d="m61.421 32.845-5.994-13.602h-4.006v21.57h3.355V25.294l5.223 12.331h2.73l5.223-12.33v15.516h3.47v-21.57h-4.007L61.42 32.846ZM86.302 19.16h-7.03c-2.699 0-4.154 1.475-4.154 4.21v13.233c0 2.734 1.456 4.21 4.154 4.21h7.03c2.698 0 4.153-1.476 4.153-4.21V23.369c0-2.734-1.454-4.209-4.153-4.209Zm.592 17.234c0 .72-.385 1.111-1.13 1.111h-5.993c-.711 0-1.097-.39-1.097-1.111V23.578c0-.72.386-1.111 1.097-1.111h5.994c.744 0 1.13.39 1.13 1.111v12.816ZM93.3 22.44h5.847v18.372h3.562V22.44h5.847v-3.28h-15.25v3.28H93.3Zm29.312-3.28h-7.031c-2.698 0-4.153 1.475-4.153 4.21v13.233c0 2.734 1.455 4.21 4.153 4.21h7.031c2.698 0 4.153-1.476 4.153-4.21V23.369c0-2.734-1.455-4.209-4.153-4.209Zm.591 17.234c0 .72-.385 1.111-1.129 1.111h-5.993c-.712 0-1.097-.39-1.097-1.111V23.578c0-.72.385-1.111 1.097-1.111h5.993c.744 0 1.129.39 1.129 1.111v12.816Zm17.77-17.234h-6.646c-2.698 0-4.153 1.475-4.153 4.21v13.233c0 2.734 1.455 4.21 4.153 4.21h6.646c2.698 0 4.153-1.476 4.153-4.21v-3.038h-3.562v2.829c0 .72-.385 1.111-1.129 1.111h-5.608c-.711 0-1.097-.39-1.097-1.111V23.578c0-.72.386-1.111 1.097-1.111h5.608c.744 0 1.129.39 1.129 1.111v2.829h3.562v-3.038c0-2.734-1.45-4.209-4.153-4.209Zm17.617 13.685-5.994-13.558h-4.006v21.53h3.355V25.302l5.222 12.33h2.731l5.223-12.33v15.517h3.469V19.28h-4.007l-5.993 13.564Zm24.132-4.061-5.521-1.233c-1.01-.242-1.396-.539-1.396-1.502v-2.526c0-.753.386-1.144 1.13-1.144h5.135c.712 0 1.097.39 1.097 1.144v2.135h3.502v-2.283c0-2.735-1.455-4.21-4.153-4.21h-6.114c-2.698 0-4.153 1.475-4.153 4.21v3.186c0 2.856 1.781 3.758 4.273 4.33l5.521 1.266c1.01.242 1.396.512 1.396 1.474v2.829c0 .754-.386 1.144-1.097 1.144h-5.549c-.711 0-1.096-.39-1.096-1.144v-2.383h-3.502v2.526c0 2.734 1.455 4.21 4.153 4.21h6.499c2.698 0 4.153-1.476 4.153-4.21v-3.489c-.005-2.856-1.759-3.758-4.278-4.33Z" fill="#fff"/><path d="m0 33.474 10.188 8.012V25.44L0 33.474Z" fill="#FF9000"/><path d="m0 17.535 10.197 8.086V9.546L0 17.535Z" fill="#FFC600"/><path d="m10.105 25.527 10.198 8.031v-16.09l-10.198 8.06Z" fill="#FF7200"/><path d="M.028 17.492v16.047l10.17-8.012-10.17-8.035Z" fill="#FFA800"/><path d="M10.16 9.546v16.089l10.17-8.087-10.17-8.002Z" fill="#FF9C00"/><path d="M30.431 25.42v16.066l10.138-8.012L30.43 25.42Z" fill="#FF8A00"/><path d="M30.436 9.522v16.024l10.133-8.138-10.133-7.886Z" fill="#FFE748"/><path d="M20.303 17.492v16.047l10.174-8.012-10.174-8.035Z" fill="#FF9600"/><path d="m10.17 41.486 10.133 8.036V33.456l-10.133 8.03Z" fill="#BC1B00"/><path d="m20.262 33.516 10.174 8.059V25.462l-10.174 8.054Z" fill="#E12D1A"/><path d="M20.303 33.474v16.048l10.156-8.012-10.156-8.036Z" fill="#B1150A"/><path d="M10.16 25.504v16.07l10.184-8.072-10.183-7.998Z" fill="#DD2A00"/><path d="m30.4 25.5 10.169 8.011v-16.15L30.399 25.5Z" fill="#FFC600"/><path d="m20.28 17.535 10.165 8.077V9.546L20.28 17.535Z" fill="#FFCE25"/></svg>