<svg width="20" height="20" fill="none" xmlns="http://www.w3.org/2000/svg"><path d="M16 0H4a4 4 0 0 0-4 4v12a4 4 0 0 0 4 4h12a4 4 0 0 0 4-4V4a4 4 0 0 0-4-4Z" fill="#F61C0D"/><path d="M7.049 16.503c-.009.124-.127.208-.24.156-3.127-1.45-5.117-5.243-3.799-9.094 1.337-3.905 5.661-5.95 9.555-4.505a7.364 7.364 0 0 1 4.322 9.62c-1.274 3.25-4.287 4.793-7.062 4.722-1.017-.026-1.474-1.091-1.157-2.059.142-.432.247-.876.35-1.307a.316.316 0 0 1 .51-.167c.696.55 1.484.604 2.309.405.876-.21 1.57-.708 2.082-1.438.868-1.236 1.174-2.634.964-4.106-.216-1.521-1.117-2.622-2.53-3.177-2.127-.835-4.145-.554-5.892.977-1.344 1.178-1.796 3.174-1.15 4.728.225.539.579.961 1.115 1.215.271.129.386.076.465-.207a.701.701 0 0 1 .02-.062c.151-.397.116-.723-.152-1.106-.488-.698-.4-1.506-.165-2.28A3.444 3.444 0 0 1 9.89 6.354a5.06 5.06 0 0 1 1.236.13c1.187.289 1.953 1.207 2.03 2.424.061.976-.091 1.924-.516 2.816-.21.44-.487.833-.9 1.111-.387.261-.811.366-1.271.246-.634-.166-.994-.744-.834-1.378.166-.658.381-1.303.544-1.962.07-.278.105-.58.077-.864-.077-.772-.807-1.133-1.489-.756-.478.265-.708.706-.815 1.217-.11.526-.056 1.045.115 1.555.034.103.04.23.015.335-.31 1.352-.641 2.699-.935 4.054-.086.395-.07.813-.098 1.22Z" fill="#fff"/></svg>