<svg width="24" height="22" fill="none" xmlns="http://www.w3.org/2000/svg"><path d="M12 16.672a3.797 3.797 0 1 0 0-7.594 3.797 3.797 0 0 0 0 7.594ZM17.545 3.266l-.243-1.214a1.41 1.41 0 0 0-1.378-1.13H8.076a1.41 1.41 0 0 0-1.378 1.13l-.243 1.214h11.09Z" fill="#637083"/><path d="M21.89 4.672H2.11C.945 4.672 0 5.618 0 6.782v12.187c0 1.163.946 2.11 2.11 2.11h19.78c1.164 0 2.11-.947 2.11-2.11V6.78c0-1.163-.946-2.11-2.11-2.11ZM6 9.078H3.75a.703.703 0 0 1 0-1.406H6a.703.703 0 0 1 0 1.406Zm6 9a5.209 5.209 0 0 1-5.203-5.203A5.209 5.209 0 0 1 12 7.672a5.209 5.209 0 0 1 5.203 5.203A5.209 5.209 0 0 1 12 18.078Z" fill="#637083"/></svg>