<svg width="24" height="24" fill="none" xmlns="http://www.w3.org/2000/svg"><path d="M21.156 12.003c-.107.539-.585.93-1.157.955a.392.392 0 0 0-.368.317.39.39 0 0 0 .217.433c.518.244.808.79.699 1.328l-.102.511c-.134.675-.88 1.096-1.533.936-.182-.044-.37-.078-.555-.115-.273-.053-.546-.11-.818-.163l-1.082-.217-1.288-.258c-.48-.097-.96-.192-1.44-.29-.511-.102-1.025-.204-1.537-.31-.526-.104-1.052-.211-1.576-.316L9.055 14.5l-1.49-.3-1.365-.272c-.394-.078-.789-.159-1.18-.237l-.946-.19-.65-.131-.3-.061-.015-.002a1.248 1.248 0 0 1-1.457 1.478c-.162-.032-.34.03-.41.18l-.22.475c-.07.151 0 .327.13.431.023.02 17.58 8.114 17.61 8.121.163.032.34-.03.411-.18l.22-.475c.07-.151 0-.326-.13-.431a1.244 1.244 0 0 1-.353-1.496 1.248 1.248 0 0 1 1.369-.701c.163.031.34-.03.412-.18l.219-.476c.07-.15 0-.326-.13-.43a1.244 1.244 0 0 1-.353-1.496 1.248 1.248 0 0 1 1.37-.702c.162.032.34-.029.41-.18l.22-.475c.07-.15 0-.326-.129-.43a1.244 1.244 0 0 1-.353-1.496 1.248 1.248 0 0 1 1.369-.702c.163.032.34-.03.411-.18l.241-.526a.3.3 0 0 0-.146-.4l-2.623-1.21-.041.177Z" fill="#637083"/><path d="M.235 11.835c.03.015 18.982 3.817 19.014 3.817.165-.007.326-.11.358-.27l.102-.512c.032-.163-.075-.319-.227-.39a1.248 1.248 0 0 1 .478-2.375c.165-.007.326-.11.358-.27l.075-.375.027-.139c.032-.163-.075-.319-.226-.39a1.248 1.248 0 0 1 .477-2.375c.166-.007.326-.109.358-.27l.102-.511c.032-.163-.075-.32-.226-.39a1.248 1.248 0 0 1 .477-2.375c.166-.007.327-.11.358-.27l.115-.568a.3.3 0 0 0-.236-.353S2.574 0 2.554 0c-.141 0-.265.1-.295.241L2.145.81c-.032.163.076.319.227.39a1.248 1.248 0 0 1-.477 2.375c-.167.007-.327.109-.359.27l-.102.511c-.032.163.075.32.226.39a1.248 1.248 0 0 1-.477 2.375c-.166.007-.326.11-.358.27l-.102.511c-.032.164.075.32.226.39a1.248 1.248 0 0 1-.477 2.375c-.166.007-.327.11-.358.27l-.103.512c-.034.163.073.317.224.387ZM16.47 5.592a.61.61 0 0 1 1.193.24l-.804 3.999-.494 2.465a.609.609 0 1 1-1.194-.24l.553-2.75.745-3.714ZM5.49 3.388a.61.61 0 0 1 1.193.239l-.278 1.38-.314 1.567-.253 1.262-.451 2.255a.609.609 0 0 1-.765.466.607.607 0 0 1-.426-.704l.09-.456.236-1.179.967-4.83Z" fill="#637083"/></svg>