<svg width="24" height="24" fill="none" xmlns="http://www.w3.org/2000/svg"><path d="M3.338.751a.375.375 0 0 0-.23.64l2.517 2.513v.817l-.905.905h-.814L1.389 3.11a.375.375 0 0 0-.639.265v3.001c0 .099.04.193.11.263l1.875 1.877A.375.375 0 0 0 3 8.624h2.843l3.22 3.22 2.78-2.78-3.218-3.22V3a.375.375 0 0 0-.11-.263L6.64.859A.375.375 0 0 0 6.375.75H3.338Zm18.37 0a.386.386 0 0 0-.127.039l-3.748 1.873a.376.376 0 0 0-.208.336v1.345l-8.469 8.47 2.03 2.031 8.468-8.469H21a.375.375 0 0 0 .335-.208l1.876-3.75a.376.376 0 0 0-.072-.433L22.016.86a.376.376 0 0 0-.308-.108Zm-6.771 11.405-2.781 2.78 3.218 3.219V21a.373.373 0 0 0 .112.266l1.873 1.875a.374.374 0 0 0 .266.11h3a.374.374 0 0 0 .264-.642l-2.513-2.514v-.814l.904-.908h.815l2.516 2.517a.375.375 0 0 0 .639-.266v-2.998a.375.375 0 0 0-.11-.266l-1.875-1.877a.374.374 0 0 0-.266-.108h-2.842l-3.22-3.22Zm-7.067.592a.375.375 0 0 0-.26.11l-.86.861 3.53 3.53.86-.86a.375.375 0 0 0 0-.53l-2.998-3a.374.374 0 0 0-.272-.11Zm-1.65 1.5-4.672 4.674C.53 19.939.47 21.562 1.453 22.545c.982.982 2.607.922 3.624-.094l4.672-4.672-3.53-3.53Z" fill="#637083"/></svg>