<svg width="24" height="24" fill="none" xmlns="http://www.w3.org/2000/svg"><path d="M7.251 16.69a2.11 2.11 0 0 1-1.064-1.83c0-3.231 2.629-5.86 5.86-5.86h2.414l.114-1.875H.894l.982 16.214c.023.372.33.661.702.661h4.314a3.497 3.497 0 0 1-.705-2.11c0-.911.582-1.69 1.394-1.983a2.795 2.795 0 0 1 0-3.065c-.229-.052-.356-.102-.33-.152ZM7.734 5.719H14.765a.703.703 0 1 0 0-1.407H9.033l1.896-2.906h2.431a.703.703 0 1 0 0-1.406h-2.812c-.238 0-.46.12-.589.319L7.354 4.312H.704a.703.703 0 1 0 0 1.407h7.03Z" fill="#637083"/><path d="M7.594 14.86c0 .388.315.703.703.703h15a.703.703 0 0 0 .703-.704 4.458 4.458 0 0 0-4.453-4.453h-7.5a4.458 4.458 0 0 0-4.453 4.453ZM9.938 16.969a1.406 1.406 0 1 0 0 2.812h11.718a1.406 1.406 0 1 0 0-2.812H9.938ZM23.297 21.188h-15a.703.703 0 0 0-.703.703c0 1.163.946 2.109 2.11 2.109H21.89C23.054 24 24 23.054 24 21.89a.703.703 0 0 0-.703-.703Z" fill="#637083"/></svg>