<svg width="80" height="80" fill="none" xmlns="http://www.w3.org/2000/svg"><g clip-path="url(#a)"><path d="M73.65 6.552v55.564a1.61 1.61 0 0 1-1.61 1.61H1.61A1.61 1.61 0 0 1 0 62.116V6.552a3.271 3.271 0 0 1 3.27-3.27H70.38a3.271 3.271 0 0 1 3.27 3.27Z" fill="#E3F4FF"/><path d="M73.65 60.222v1.894a1.61 1.61 0 0 1-1.61 1.61H57.043l-3.807-3.807a3.415 3.415 0 0 1-.539-4.116l-4.41-4.409c-4.081 2.8-8.903 4.306-13.96 4.306-6.61 0-12.824-2.574-17.498-7.247-9.648-9.649-9.648-25.349 0-34.997 4.674-4.673 10.888-7.247 17.498-7.247 6.61 0 12.825 2.574 17.497 7.247a24.584 24.584 0 0 1 7.249 17.498c0 5.056-1.506 9.879-4.308 13.961l4.41 4.407a3.403 3.403 0 0 1 4.117.542L73.65 60.222Z" fill="#BDDFF4"/><path d="M73.65 6.552v55.564a1.61 1.61 0 0 1-1.61 1.61h-3.52a1.61 1.61 0 0 0 1.61-1.61V6.552a3.271 3.271 0 0 0-3.271-3.27h3.52a3.271 3.271 0 0 1 3.271 3.27Z" fill="#BDDFF4"/><path d="M73.65 6.552v5.63H0v-5.63a3.27 3.27 0 0 1 3.27-3.27H70.38a3.271 3.271 0 0 1 3.27 3.27Z" fill="#9BE058"/><path d="M50.453 12.183H18.2c4.486-3.865 10.145-5.974 16.127-5.974 5.982 0 11.641 2.109 16.126 5.974ZM73.65 6.552v5.63h-3.52v-5.63a3.271 3.271 0 0 0-3.271-3.27h3.52a3.271 3.271 0 0 1 3.271 3.27Z" fill="#1CC939"/><path d="m46.963 47.338 3.747-3.747L61.04 53.92l-3.748 3.747-10.33-10.329Z" fill="#9BE058"/><path d="M57.142 30.955c0 12.6-10.214 22.814-22.815 22.814-12.6 0-22.814-10.214-22.814-22.814S21.727 8.14 34.328 8.14c12.6 0 22.814 10.215 22.814 22.815Z" fill="#618BAA"/><path d="M47.54 44.166c-.064.064-.13.127-.193.188A18.617 18.617 0 0 1 34.2 49.64a18.48 18.48 0 0 1-3.62-.379 18.548 18.548 0 0 1-9.344-4.977c-.04-.037-.08-.077-.12-.117-7.299-7.297-7.299-19.128 0-26.424 7.296-7.297 19.127-7.297 26.424 0 7.297 7.296 7.297 19.127 0 26.424Z" fill="#64BDFF"/><path d="M46.417 39.1a8.125 8.125 0 0 1-.14.14c-2.662 2.664-6.119 3.984-9.57 3.96a13.08 13.08 0 0 1-2.634-.284 13.382 13.382 0 0 1-6.801-3.729c-.03-.028-.058-.058-.088-.088-5.312-5.467-5.312-14.331 0-19.799 5.31-5.467 13.922-5.467 19.233 0 5.31 5.467 5.31 14.332 0 19.8Z" fill="#9CD5FF"/><path d="m79.566 70.965-5.228 5.228a1.482 1.482 0 0 1-2.096 0l-17.639-17.64a1.48 1.48 0 0 1 0-2.095l5.228-5.228a1.482 1.482 0 0 1 2.095 0l17.64 17.639a1.482 1.482 0 0 1 0 2.096Z" fill="#618BAA"/><path d="m61.927 51.23 17.639 17.64a1.482 1.482 0 0 1 0 2.094l-2.083 2.084a1.482 1.482 0 0 0 0-2.096l-17.64-17.64a1.483 1.483 0 0 0-2.095 0l2.083-2.083a1.484 1.484 0 0 1 2.096 0Z" fill="#4E7693"/><path d="M70.864 75.452a1.208 1.208 0 0 1-.854-2.061l6.577-6.576a1.207 1.207 0 1 1 1.708 1.707L71.718 75.1a1.205 1.205 0 0 1-.854.353Z" fill="#9BE058"/><path d="M7.475 9.032a1.207 1.207 0 0 1-1.207-1.2 1.213 1.213 0 0 1 1.2-1.221h.008c.663 0 1.203.529 1.206 1.194v.012a1.207 1.207 0 0 1-1.2 1.215h-.007Z" fill="#FC3E81"/><path d="M10.612 9.032a1.208 1.208 0 0 1-1.208-1.2 1.213 1.213 0 0 1 1.2-1.221h.008c.663 0 1.203.529 1.207 1.194v.012a1.207 1.207 0 0 1-1.2 1.215h-.007Z" fill="#1685FB"/><path d="M13.748 9.032a1.207 1.207 0 0 1-1.207-1.2 1.213 1.213 0 0 1 1.2-1.221h.007c.663 0 1.203.529 1.207 1.194v.012a1.208 1.208 0 0 1-1.2 1.215h-.008Z" fill="#FFDF46"/><path d="M7.914 52.312h-.66a1.207 1.207 0 1 1 0-2.414h.66a1.207 1.207 0 1 1 0 2.414ZM14.905 52.312h-4.116a1.207 1.207 0 1 1 0-2.414h4.116a1.207 1.207 0 1 1 0 2.414ZM14.905 55.502H7.253a1.207 1.207 0 1 1 0-2.415h7.652a1.208 1.208 0 0 1 0 2.415ZM14.905 58.691H7.253a1.208 1.208 0 0 1 0-2.414h7.652a1.208 1.208 0 0 1 0 2.414Z" fill="#618BAA"/><path d="M67.143 43.395c-.667 0-1.207-.54-1.207-1.206V17.306a1.207 1.207 0 0 1 2.413 0v24.882c.001.667-.54 1.207-1.206 1.207Z" fill="#9BE058"/></g><defs><clipPath id="a"><path fill="#fff" d="M0 0h80v80H0z"/></clipPath></defs></svg>