<svg width="80" height="80" fill="none" xmlns="http://www.w3.org/2000/svg"><path d="M36.332 77.797H3.488c-.667 0-1.208-.54-1.208-1.207V3.41c0-.666.541-1.207 1.208-1.207h73.179c.667 0 1.207.54 1.207 1.207v33.18a1.207 1.207 0 0 1-2.414 0V4.617H4.695v70.765h31.637a1.208 1.208 0 0 1 0 2.415Z" fill="#FD6096"/><path d="M5.303 6.82H1.83C.906 6.82.156 6.072.156 5.148V1.674C.156.75.906 0 1.83 0h3.473c.924 0 1.674.75 1.674 1.674v3.473c0 .924-.75 1.674-1.674 1.674ZM41.814 6.82H38.34c-.924 0-1.673-.749-1.673-1.673V1.674C36.667.75 37.417 0 38.34 0h3.474c.924 0 1.673.75 1.673 1.674v3.473c0 .924-.748 1.674-1.673 1.674ZM78.325 6.82h-3.473c-.925 0-1.674-.749-1.674-1.673V1.674C73.178.75 73.927 0 74.852 0h3.472c.925 0 1.674.75 1.674 1.674v3.473c0 .924-.749 1.674-1.674 1.674ZM5.303 80H1.83c-.924 0-1.674-.75-1.674-1.674v-3.473c0-.924.75-1.674 1.674-1.674h3.473c.924 0 1.674.75 1.674 1.674v3.473c0 .925-.75 1.674-1.674 1.674ZM41.814 80H38.34c-.924 0-1.673-.75-1.673-1.674v-3.473c0-.924.75-1.674 1.673-1.674h3.474c.924 0 1.673.75 1.673 1.674v3.473c0 .925-.748 1.674-1.673 1.674ZM5.303 43.41H1.83a1.673 1.673 0 0 1-1.674-1.673v-3.473c0-.925.75-1.674 1.674-1.674h3.473c.924 0 1.674.749 1.674 1.674v3.472c0 .925-.75 1.674-1.674 1.674ZM78.325 43.41h-3.473a1.673 1.673 0 0 1-1.674-1.673v-3.473c0-.925.749-1.674 1.674-1.674h3.472c.925 0 1.674.749 1.674 1.674v3.472c0 .925-.749 1.674-1.674 1.674Z" fill="#3FEFEF"/><path d="M76.667 63.026v11.89c0 .924-.749 1.674-1.673 1.674H63.103c-1.49 0-2.238-1.803-1.184-2.857L73.81 61.842c1.055-1.055 2.857-.308 2.857 1.184ZM14.636 15.841v9.313c-.001.89.72 1.61 1.609 1.61h4.082c.89 0 1.61-.72 1.61-1.609v-3.069h14.49v36.38H26.081c-.89 0-1.61.72-1.61 1.61v4.082c0 .89.72 1.61 1.61 1.61h27.995c.889 0 1.61-.72 1.61-1.61v-4.082c0-.89-.721-1.61-1.61-1.61H43.73v-36.38h14.488v3.069c0 .889.72 1.61 1.61 1.61h4.082c.89 0 1.61-.721 1.61-1.61v-9.313c0-.89-.72-1.61-1.61-1.61H16.246c-.89 0-1.61.72-1.61 1.61Z" fill="#FD6096"/><path d="M50.12 45.706h-.833a1.207 1.207 0 1 1 0-2.414h.833a1.207 1.207 0 1 1 0 2.414ZM60.159 45.706h-6.817a1.207 1.207 0 1 1 0-2.414h6.817a1.207 1.207 0 1 1 0 2.414ZM60.159 49.73H49.287a1.208 1.208 0 0 1 0-2.414H60.16a1.207 1.207 0 1 1 0 2.414ZM60.159 53.754H49.287a1.208 1.208 0 0 1 0-2.414H60.16a1.207 1.207 0 1 1 0 2.414Z" fill="#FD6096"/></svg>