<svg width="80" height="80" fill="none" xmlns="http://www.w3.org/2000/svg"><g clip-path="url(#a)"><path d="m73.36 23.302-4.594 6.03-3.83 5.03c-.65.852-2 .205-1.742-.835l1.263-5.104h-3.526a.986.986 0 0 1-.897-1.395l1.138-2.49 1.38-3.017h-3.42a.988.988 0 0 1-.873-1.446l5.043-9.596a.983.983 0 0 1 .872-.528h7.292c.745 0 1.22.793.87 1.45l-1.83 3.425h2.017c.734 0 1.21.773.882 1.428l-2.74 5.464h1.911a.986.986 0 0 1 .784 1.584Z" fill="#F9B200"/><path d="m68.766 29.332-3.83 5.03c-.65.852-2 .205-1.742-.835l1.263-5.104h-3.526a.986.986 0 0 1-.897-1.395l1.138-2.49a18.352 18.352 0 0 1 7.594 4.794Z" fill="#F80"/><path d="M19.553 29.605h-3.42l2.518 5.505a.987.987 0 0 1-.896 1.397h-3.527l1.263 5.104c.258 1.039-1.093 1.686-1.742.834l-7.183-9.431-1.241-1.63a.986.986 0 0 1 .783-1.583H8.02l-2.74-5.463a.986.986 0 0 1 .881-1.428H8.18L6.35 19.485a.985.985 0 0 1 .87-1.45h7.291c.366 0 .702.202.872.526l2.298 4.372 2.746 5.226a.987.987 0 0 1-.874 1.446Z" fill="#F9B200"/><path d="M20.427 28.16a.987.987 0 0 1-.875 1.445h-3.419l2.518 5.505a.987.987 0 0 1-.897 1.397h-3.526l1.263 5.104c.258 1.039-1.093 1.686-1.742.834l-7.184-9.431a17.11 17.11 0 0 1 5.214-2.008 23.739 23.739 0 0 1 5.901-8.073l2.747 5.226Z" fill="#F80"/><path d="M29.067 66.625s21.651-3.303 28.686 10.627a3.896 3.896 0 0 0 3.47 2.16c2.926 0 4.793-3.12 3.413-5.697l-10.31-19.253h-20.12l-5.139 12.163Z" fill="#F01054"/><path d="M71.787 43.81c.068-.609.105-1.226.105-1.853 0-9.049-7.335-16.384-16.384-16.384-1.86 0-3.649.311-5.316.883-4.018-4.681-9.978-7.646-16.631-7.646-9.282 0-17.216 5.77-20.41 13.92C5.721 33.757 0 40.132 0 47.845c0 8.428 6.832 15.26 15.26 15.26 1.117 0 2.205-.12 3.252-.348 2.384 5.323 7.726 9.032 13.935 9.032 6.308 0 11.72-3.826 14.046-9.284a15.191 15.191 0 0 0 8.287 2.444c3.6 0 6.909-1.247 9.518-3.333a9.863 9.863 0 0 0 5.79 1.87c5.474 0 9.912-4.438 9.912-9.912 0-4.895-3.549-8.959-8.213-9.765Z" fill="#FD82AC"/><path d="M79.999 53.414c.084 5.382-4.227 9.905-9.607 10.067a9.87 9.87 0 0 1-6.094-1.865 15.187 15.187 0 0 1-9.518 3.334c-3.055 0-5.901-.9-8.287-2.445-2.326 5.456-7.739 9.285-14.046 9.285-6.21 0-11.552-3.709-13.934-9.033-.95.206-1.932.325-2.937.345C7.423 63.268.512 56.908.028 48.767a15.462 15.462 0 0 1 .164-3.35c1.162 7.275 7.467 12.837 15.07 12.837a15.3 15.3 0 0 0 2.107-.145 1.61 1.61 0 0 1 1.646.813c2.579 4.772 7.627 8.014 13.432 8.014 5.729 0 10.72-3.156 13.33-7.824a1.612 1.612 0 0 1 2.14-.642 15.201 15.201 0 0 0 6.863 1.627c3.22 0 6.206-.998 8.667-2.7a1.59 1.59 0 0 1 1.697-.084 9.858 9.858 0 0 0 4.944 1.321c4.637 0 8.53-3.184 9.613-7.486.184.726.286 1.485.298 2.266Z" fill="#FD6096"/><path d="M39.76 40.39a1.208 1.208 0 0 1-1.195-1.389c.464-3.046 1.78-5.945 3.807-8.381a17.937 17.937 0 0 1 7.391-5.293 1.207 1.207 0 0 1 .858 2.257c-5.079 1.931-8.874 6.555-9.668 11.78a1.207 1.207 0 0 1-1.192 1.026Z" fill="#000"/><path d="M67.547 53.54a1.205 1.205 0 0 1-.878-2.035c2.11-2.233 3.467-4.959 3.925-7.883a1.207 1.207 0 1 1 2.386.374c-.535 3.408-2.11 6.578-4.556 9.166a1.203 1.203 0 0 1-.877.379ZM18.522 63.98c-.492 0-.954-.303-1.134-.792a16.132 16.132 0 0 1 3.268-16.51 1.208 1.208 0 0 1 1.78 1.632 13.727 13.727 0 0 0-2.78 14.047 1.208 1.208 0 0 1-1.134 1.623ZM37.907 56.34c-.663 0-1.21-.535-1.214-1.199a1.202 1.202 0 0 1 1.194-1.215h.02a1.207 1.207 0 0 1 .008 2.415h-.008Z" fill="#FD6096"/><path d="M40.65 58.58c-.663 0-1.21-.537-1.213-1.2a1.202 1.202 0 0 1 1.193-1.215h.02a1.207 1.207 0 0 1 .007 2.414h-.007ZM33.562 60.671c-.664 0-1.21-.535-1.214-1.199a1.202 1.202 0 0 1 1.193-1.215h.013a1.207 1.207 0 1 1 .015 2.415h-.007ZM71.793 59.56c-.667 0-1.213-.54-1.213-1.207s.534-1.207 1.2-1.207h.013a1.207 1.207 0 1 1 0 2.414ZM65.106 39.506c-.667 0-1.214-.541-1.214-1.208 0-.667.534-1.207 1.2-1.207h.014a1.207 1.207 0 1 1 0 2.415Z" fill="#F01054"/><path d="m35.079 2.988-9.244 17.596a1.808 1.808 0 0 0 1.6 2.648h6.269l-4.615 10.095a1.808 1.808 0 0 0 1.645 2.559h6.465l-2.319 9.357c-.472 1.905 2.003 3.091 3.193 1.53L53.52 26.497c.906-1.19.058-2.904-1.438-2.904H48.58l5.022-10.016a1.808 1.808 0 0 0-1.616-2.617h-3.7l3.354-6.28a1.808 1.808 0 0 0-1.594-2.659H36.679a1.81 1.81 0 0 0-1.6.967Z" fill="#FFDF46"/><path d="M24.526 52.333c0-6.32 5.991-11.445 13.382-11.445 7.39 0 13.38 5.125 13.38 11.445H24.526Z" fill="#FD82AC"/><path d="M47.083 45.21c-.266 0-.534-.087-.757-.267-2.277-1.836-5.267-2.848-8.418-2.848-2.696 0-5.25.728-7.388 2.104a1.207 1.207 0 1 1-1.308-2.03c2.528-1.628 5.536-2.488 8.696-2.488 3.7 0 7.228 1.201 9.933 3.382a1.208 1.208 0 0 1-.758 2.148ZM13.919 49.646c-.668 0-1.214-.54-1.214-1.207s.534-1.207 1.2-1.207h.013a1.207 1.207 0 1 1 0 2.414ZM25.631 30.7c-.667 0-1.213-.54-1.213-1.208 0-.666.534-1.207 1.2-1.207h.013a1.207 1.207 0 1 1 0 2.415Z" fill="#FD6096"/><path d="M19.564 11.132a1.208 1.208 0 0 1-1.207-1.201l-.001-.301a1.207 1.207 0 0 1 1.202-1.213h.005c.664 0 1.204.536 1.207 1.201l.002.301a1.207 1.207 0 0 1-1.202 1.213h-.006ZM19.575 15.563a1.207 1.207 0 0 1-1.208-1.201v-.3a1.208 1.208 0 0 1 1.2-1.214h.006c.665 0 1.204.537 1.207 1.202l.002.3a1.208 1.208 0 0 1-1.202 1.213h-.005ZM21.634 13.193a1.207 1.207 0 0 1-.006-2.415h.307a1.207 1.207 0 0 1 .006 2.414h-.307ZM17.203 13.203a1.207 1.207 0 0 1-.006-2.414l.3-.002c.662.002 1.21.534 1.214 1.201a1.207 1.207 0 0 1-1.201 1.213l-.301.002h-.006ZM59.36 3.184a1.207 1.207 0 0 1-1.207-1.201l-.002-.301A1.208 1.208 0 0 1 59.353.469h.006c.664 0 1.204.536 1.207 1.202l.001.3a1.208 1.208 0 0 1-1.201 1.213h-.006ZM59.37 7.615a1.207 1.207 0 0 1-1.207-1.201l-.001-.3a1.207 1.207 0 0 1 2.414-.012l.001.3a1.207 1.207 0 0 1-1.2 1.213h-.007ZM61.43 5.245a1.207 1.207 0 0 1-.006-2.414l.3-.002h.006a1.207 1.207 0 0 1 .006 2.415l-.3.001h-.007ZM56.998 5.255a1.208 1.208 0 0 1-.005-2.414l.3-.002h.006a1.208 1.208 0 0 1 .006 2.415l-.3.001h-.007ZM75.926 31.16a1.207 1.207 0 0 1-1.207-1.203l-.002-.3a1.207 1.207 0 0 1 1.201-1.213h.007c.664 0 1.203.536 1.206 1.201l.002.3a1.208 1.208 0 0 1-1.202 1.214h-.005ZM75.936 35.59a1.207 1.207 0 0 1-1.207-1.202l-.001-.3a1.207 1.207 0 0 1 1.201-1.212h.006c.664 0 1.204.536 1.207 1.2l.001.302a1.207 1.207 0 0 1-1.201 1.212h-.006ZM77.996 33.22a1.207 1.207 0 0 1-.006-2.414l.3-.002h.007a1.207 1.207 0 0 1 .005 2.415l-.3.001h-.006ZM73.564 33.23a1.207 1.207 0 0 1-.005-2.414l.3-.002h.006a1.208 1.208 0 0 1 .006 2.415l-.3.001h-.007Z" fill="#FFDF46"/></g><defs><clipPath id="a"><path fill="#fff" d="M0 0h80v80H0z"/></clipPath></defs></svg>