<svg width="80" height="80" fill="none" xmlns="http://www.w3.org/2000/svg"><g clip-path="url(#a)"><path d="M32.107 65.575h15.786v8.729H32.107v-8.729Z" fill="#4E7693"/><path d="M32.107 65.575h15.785v2.717H32.107v-2.717Z" fill="#38627C"/><path d="M80 12.555v51.84c0 .91-.736 1.644-1.644 1.644H1.644A1.642 1.642 0 0 1 0 64.396V12.555a2.466 2.466 0 0 1 2.465-2.465h75.07A2.465 2.465 0 0 1 80 12.555Z" fill="#E3F4FF"/><path d="M80 12.555v51.84c0 .91-.736 1.644-1.644 1.644h-3.573c.908 0 1.643-.734 1.643-1.643V12.555a2.464 2.464 0 0 0-2.464-2.463l.002-.002h3.571A2.465 2.465 0 0 1 80 12.555Z" fill="#BDDFF4"/><path d="M80 58.162v6.234c0 .91-.736 1.643-1.642 1.643H1.642A1.642 1.642 0 0 1 0 64.396v-6.234h80Z" fill="#4E7693"/><path d="M80 58.162v6.234c0 .91-.736 1.643-1.642 1.643h-3.575c.908 0 1.643-.734 1.643-1.643v-6.234H80ZM54.084 75.51H25.915a1.207 1.207 0 1 1 0-2.414h28.17a1.207 1.207 0 1 1 0 2.415Z" fill="#38627C"/><path d="M65.881 58.162H14.12V6.14c0-.889.72-1.61 1.61-1.61h48.543c.89 0 1.61.721 1.61 1.61v52.02Z" fill="#9CC6DB"/><path d="M28.335 58.162H19.98v-7.98c0-.89.72-1.61 1.61-1.61h5.134c.89 0 1.61.72 1.61 1.61v7.98Z" fill="#FC3E81"/><path d="M44.177 58.162h-8.354v-7.98c0-.89.72-1.61 1.61-1.61h5.135c.888 0 1.61.72 1.61 1.61v7.98Z" fill="#43A3F9"/><path d="M60.019 58.162h-8.354v-7.98c0-.89.72-1.61 1.61-1.61h5.134c.89 0 1.61.72 1.61 1.61v7.98Z" fill="#9BE058"/><path d="M14.119 15.96H65.88v26.156H14.12V15.96Z" fill="#4E7693"/><path d="M25.915 13.143h-6.197a1.207 1.207 0 0 1 0-2.415h6.197a1.207 1.207 0 1 1 0 2.415Z" fill="#9BE058"/><path d="M43.016 13.143c-.667 0-1.213-.54-1.213-1.208 0-.666.534-1.207 1.2-1.207h.013a1.207 1.207 0 1 1 0 2.415ZM47.212 13.143c-.667 0-1.214-.54-1.214-1.208 0-.666.535-1.207 1.202-1.207h.012a1.208 1.208 0 0 1 0 2.415ZM51.409 13.143c-.667 0-1.214-.54-1.214-1.208 0-.666.534-1.207 1.201-1.207h.013a1.207 1.207 0 0 1 0 2.415ZM55.605 13.143c-.666 0-1.213-.54-1.213-1.208 0-.666.534-1.207 1.2-1.207h.013a1.207 1.207 0 1 1 0 2.415ZM59.801 13.143c-.666 0-1.213-.54-1.213-1.208 0-.666.534-1.207 1.2-1.207h.013a1.207 1.207 0 1 1 0 2.415Z" fill="#E3F4FF"/><path d="M57.19 36.756h-5.532a1.45 1.45 0 0 1 0-2.899h5.532a1.45 1.45 0 0 1 0 2.899Z" fill="#9BE058"/><path d="M50.21 24.523c-.668 0-1.208-.54-1.208-1.207v-.504a1.207 1.207 0 1 1 2.414 0v.504c0 .667-.54 1.207-1.207 1.207ZM52.89 24.523c-.667 0-1.207-.54-1.207-1.207v-.504a1.207 1.207 0 1 1 2.414 0v.504c0 .667-.54 1.207-1.208 1.207ZM55.823 28.193H50.21a1.207 1.207 0 1 1 0-2.414h5.614a1.207 1.207 0 0 1 0 2.414ZM60.611 31.09H50.21a1.207 1.207 0 1 1 0-2.414h10.402a1.207 1.207 0 1 1 0 2.415Z" fill="#E3F4FF"/><path d="M14.119 15.96h31.668v26.155H14.12V15.96Z" fill="#FFEEE1"/><path d="M32.995 27.323a6.053 6.053 0 1 1-12.106 0 6.053 6.053 0 0 1 12.106 0Z" fill="#4E7693"/><path d="M45.787 15.96v13.875L29.877 15.96h15.91Z" fill="#9BE058"/><path d="M45.788 15.96v26.155H20.834l14.004-21.83 2.775-4.325h8.175Z" fill="#FC3E81"/><path d="M45.787 15.96v13.875l-10.95-9.55 2.776-4.325h8.174Z" fill="#43A3F9"/><path d="M30.482 36.053a1.207 1.207 0 0 1-1.207-1.188 1.211 1.211 0 0 1 1.188-1.232h.02c.657 0 1.196.523 1.206 1.183v.01a1.207 1.207 0 0 1-1.188 1.226h-.02ZM30.48 38.964c-.667 0-1.207-.54-1.207-1.208 0-.666.54-1.212 1.207-1.212.666 0 1.207.536 1.207 1.203v.01c0 .666-.54 1.207-1.207 1.207ZM33.468 36.051c-.667 0-1.207-.54-1.207-1.207s.54-1.212 1.207-1.212c.666 0 1.207.535 1.207 1.201v.01c0 .667-.54 1.208-1.207 1.208ZM33.467 38.962c-.667 0-1.207-.54-1.207-1.207 0-.666.54-1.212 1.207-1.212.666 0 1.206.536 1.206 1.202v.01c0 .667-.54 1.207-1.206 1.207ZM36.455 36.05c-.667 0-1.207-.541-1.207-1.207 0-.667.54-1.213 1.207-1.213s1.207.536 1.207 1.202v.01c0 .667-.54 1.208-1.207 1.208ZM36.453 38.961c-.666 0-1.207-.54-1.207-1.207s.54-1.212 1.207-1.212 1.208.536 1.208 1.202v.01c0 .667-.54 1.207-1.208 1.207Z" fill="#9BE058"/><path d="M25.977 22.93a2.937 2.937 0 1 1-5.874 0 2.937 2.937 0 0 1 5.874 0Z" fill="#FFDF46"/></g><defs><clipPath id="a"><path fill="#fff" d="M0 0h80v80H0z"/></clipPath></defs></svg>