<svg width="80" height="80" fill="none" xmlns="http://www.w3.org/2000/svg"><path d="M76.766 29.573h-2.975v9.67h2.975c1.779 0 3.234-1.423 3.234-3.163v-3.345c0-1.739-1.455-3.162-3.234-3.162Z" fill="#B1DBFC"/><path d="M77.6 29.684a3.275 3.275 0 0 0-.834-.11h-2.975v9.669h2.975c.29 0 .568-.042.835-.111v-9.448Z" fill="#8CC9F9"/><path d="M9.204 23.793H1.523c-.838 0-1.523.671-1.523 1.493V43.53c0 .821.685 1.493 1.523 1.493h7.681v-21.23Z" fill="#60B8FE"/><path d="M4.749 43.53V25.286c0-.821.685-1.493 1.522-1.493H1.523c-.838 0-1.523.671-1.523 1.493V43.53c0 .821.685 1.493 1.523 1.493H6.27c-.837 0-1.522-.672-1.522-1.493Z" fill="#23A8FE"/><path d="M25.46 18.715v-3.322c0-1.207-.956-2.194-2.126-2.194h-1.652c-1.17 0-2.126.987-2.126 2.194v3.322h5.904Z" fill="#60B8FE"/><path d="M24.386 13.49a2.055 2.055 0 0 0-1.052-.291h-1.652c-1.17 0-2.126.987-2.126 2.194v3.322h3.755v-3.322a2.21 2.21 0 0 1 1.075-1.903Z" fill="#23A8FE"/><path d="M68.298 4.104 35.703 21.492v25.832l32.595 17.388V4.104Z" fill="#B1DBFC"/><path d="m35.703 47.323 32.595 17.388v-4.855L35.703 42.468v4.855Z" fill="#8CC9F9"/><path d="M33.75 50.11h-4.694l-1.777 6.887h2.553c1.426 0 2.676-.932 3.05-2.276l1.296-4.651c-.14.026-.282.04-.429.04Z" fill="#4F67D2"/><path d="M32.275 50.11h-3.22l-1.776 6.887h2.553c.235 0 .464-.027.686-.076l1.757-6.81Z" fill="#324CCC"/><path d="M25.344 69.123a3.721 3.721 0 0 1-.267-2.538l4.128-16.474H15.23v24.387c0 2.043 1.647 3.7 3.679 3.7h4.965c2.724 0 4.503-2.875 3.3-5.334l-1.831-3.741Z" fill="#6C7ED6"/><path d="M20.114 74.498V50.11h-4.883v24.388c0 2.043 1.647 3.7 3.679 3.7h4.882c-2.031 0-3.678-1.657-3.678-3.7Z" fill="#4F67D2"/><path d="M33.762 18.543H11.254a2.238 2.238 0 0 0-2.231 2.23v27.268a2.238 2.238 0 0 0 2.23 2.231h22.509a2.237 2.237 0 0 0 2.23-2.23V20.773a2.237 2.237 0 0 0-2.23-2.23Z" fill="#23A8FE"/><path d="M13.892 48.041V20.775a2.238 2.238 0 0 1 2.231-2.232h-4.87a2.238 2.238 0 0 0-2.23 2.232V48.04a2.237 2.237 0 0 0 2.23 2.231h4.87a2.237 2.237 0 0 1-2.23-2.23Z" fill="#0193FA"/><path d="M72.054 66.94H69.9a1.88 1.88 0 0 1-1.875-1.875V3.75A1.88 1.88 0 0 1 69.9 1.875h2.154A1.88 1.88 0 0 1 73.93 3.75v61.316a1.88 1.88 0 0 1-1.875 1.874Z" fill="#FD82AC"/><path d="M71.834 65.01V3.806c0-.744.427-1.392 1.047-1.715a1.912 1.912 0 0 0-.883-.217h-2.041c-1.063 0-1.932.87-1.932 1.932v61.202c0 1.062.869 1.931 1.932 1.931h2.04c.319 0 .619-.079.885-.217a1.935 1.935 0 0 1-1.048-1.714Z" fill="#FC3E81"/><path d="M4.467 34.565c0-.666-.54-1.206-1.208-1.206H0v2.414h3.26c.666 0 1.207-.54 1.207-1.208ZM4.467 40.371c0-.666-.54-1.207-1.208-1.207H0v2.414h3.26c.666 0 1.207-.54 1.207-1.207ZM3.26 27.553H0v2.415h3.26a1.207 1.207 0 1 0 0-2.415Z" fill="#0193FA"/></svg>