<svg width="80" height="80" fill="none" xmlns="http://www.w3.org/2000/svg"><path d="M77.5 37.656V72.97c0 3.907-3.212 7.031-7.031 7.031-3.891 0-11.719-3.14-11.719-7.031V37.656H77.5Z" fill="#83A7C5"/><path d="M63.438 72.969V0H2.5v70.625C2.5 75.781 6.719 80 11.875 80h58.594a7.022 7.022 0 0 1-7.031-7.031Z" fill="#E3F4FF"/><path d="M70.469 80h-37.5V0h30.468v72.969c0 3.89 3.14 7.031 7.032 7.031Z" fill="#BDDFF4"/><path d="M11.875 56.563h42.188v4.687H11.874v-4.688ZM11.875 65.938h42.188v4.687H11.874v-4.688Z" fill="#83A7C5"/><path d="M32.969 9.531c-11.625 0-21.094 9.47-21.094 21.094 0 11.625 9.469 21.094 21.094 21.094 11.624 0 21.093-9.47 21.093-21.094C54.063 19 44.594 9.531 32.97 9.531Z" fill="#4BB9EC"/><path d="M54.063 30.625c0 11.625-9.47 21.094-21.094 21.094V9.53c11.624 0 21.093 9.47 21.093 21.094Z" fill="#0095FF"/><path d="m37.938 35.594 3.328 3.328a11.666 11.666 0 0 1-8.297 3.422c-6.469 0-11.719-5.25-11.719-11.719 0-7.031 5.718-11.578 11.719-11.672a11.392 11.392 0 0 1 8.297 3.375l-3.328 3.328c-1.407-1.406-3.188-2.015-4.97-2.015-3.562.047-7.03 2.718-7.03 6.984s3.468 6.937 7.03 6.984c1.735.047 3.563-.609 4.97-2.015Z" fill="#F2F2FC"/><path d="m37.938 35.594 3.328 3.328a11.666 11.666 0 0 1-8.297 3.422v-4.735c1.734.047 3.562-.609 4.969-2.015ZM37.938 25.656c-1.407-1.406-3.188-2.015-4.97-2.015v-4.688a11.392 11.392 0 0 1 8.298 3.375l-3.328 3.328Z" fill="#D8D8FC"/><path d="M32.969 56.563h21.093v4.687H32.97v-4.688ZM32.969 65.938h21.093v4.687H32.97v-4.688Z" fill="#628DB2"/></svg>