<svg width="76" height="80" fill="none" xmlns="http://www.w3.org/2000/svg"><path d="M64.728 64.525a36.436 36.436 0 0 0 9.64-24.749C74.367 19.62 58.084 3.277 38 3.277S1.633 19.62 1.633 39.777a36.482 36.482 0 0 0 3.121 14.81l59.974 9.938Z" fill="#64BDFF"/><path d="M17.621 7.98v6.74h45.117c1.024 0 1.853.833 1.853 1.86v39.558h4.84a1.889 1.889 0 0 0 1.885-1.892V7.98H17.621Z" fill="#D5F1FE"/><path d="M17.621 7.98h9.71v6.74h-9.71V7.98Z" fill="#BDDFF4"/><path d="M64.847 64.395V22.444H11.152v6.74H56.27c1.024 0 1.853.832 1.853 1.86v39.138a36.572 36.572 0 0 0 6.725-5.787Z" fill="#D5F1FE"/><path d="M11.152 22.444h9.71v6.74h-9.71v-6.74Z" fill="#D5F1FE"/><path d="M4.684 73.103c0 2.21 1.787 4 3.996 4h45.703c2.209 0 3.996-1.79 3.996-4V36.096H4.684v37.007Z" fill="#E6F7FE"/><path d="M14.398 36.946H4.75v36.416a4 4 0 0 0 4.03 4l5.618-.043V36.946Z" fill="#D5F1FE"/><path d="M58.379 37.25v-6.277c0-1.13-.913-2.046-2.04-2.046H6.724c-1.126 0-2.039.916-2.039 2.046v6.277H58.38Z" fill="#615DF9"/><path d="M16.432 28.926H6.723c-1.126 0-2.039.917-2.039 2.047v6.277h9.71v-6.277c0-1.13.912-2.047 2.038-2.047Z" fill="#3342AE"/><path d="M64.847 22.786V16.51c0-1.13-.912-2.047-2.039-2.047H13.192c-1.127 0-2.04.917-2.04 2.047v6.276h53.695Z" fill="#615DF9"/><path d="M22.9 14.463h-9.708c-1.127 0-2.04.917-2.04 2.047v6.276h9.71V16.51c0-1.13.912-2.047 2.038-2.047Z" fill="#3342AE"/><path d="M71.316 8.323V2.047C71.316.916 70.403 0 69.276 0H19.66c-1.126 0-2.039.916-2.039 2.047v6.276h53.695Z" fill="#615DF9"/><path d="M29.37 0h-9.71c-1.126 0-2.039.916-2.039 2.047v6.276h9.71V2.047C27.33.916 28.242 0 29.368 0Z" fill="#3342AE"/><path d="M23.829 5.875a1.711 1.711 0 0 1-1.708-1.712 1.71 1.71 0 0 1 2.04-1.682 1.714 1.714 0 0 1-.332 3.394Z" fill="#F948B4"/><path d="M29.039 5.875a1.71 1.71 0 0 1-1.708-1.712 1.712 1.712 0 0 1 2.041-1.682 1.714 1.714 0 0 1-.333 3.394Z" fill="#FECD0A"/><path d="M34.25 5.875a1.712 1.712 0 0 1-1.709-1.712 1.71 1.71 0 0 1 2.041-1.682 1.715 1.715 0 0 1-.333 3.394Z" fill="#39DF74"/><path d="M57.406 5.447H41.021c-.708 0-1.281-.575-1.281-1.286 0-.71.573-1.285 1.28-1.285h16.386c.708 0 1.282.575 1.282 1.285s-.574 1.286-1.282 1.286ZM65.657 5.447h-2.733a1.283 1.283 0 0 1-1.281-1.286c0-.71.573-1.285 1.281-1.285h2.733c.708 0 1.281.575 1.281 1.285s-.574 1.286-1.281 1.286Z" fill="#AEAEFF"/><path d="m22.589 65.648-7.267-7.293a1.72 1.72 0 0 1 0-2.424l7.267-7.293a1.703 1.703 0 0 1 2.416 0c.667.67.667 1.755 0 2.425l-6.059 6.08 6.059 6.08c.667.67.667 1.756 0 2.425-.667.67-1.749.67-2.416 0Z" fill="#FD82AC"/><path d="m25.005 63.224-6.058-6.08.933-.937c-1.505.489-2.911-.972-2.378-2.463l-2.18 2.187a1.718 1.718 0 0 0 0 2.425l7.267 7.292c.667.67 1.75.67 2.416 0a1.718 1.718 0 0 0 0-2.424Z" fill="#FC3E81"/><path d="M38.057 65.648a1.72 1.72 0 0 1 0-2.424l6.059-6.08-6.059-6.081a1.72 1.72 0 0 1 0-2.425 1.704 1.704 0 0 1 2.416 0l7.267 7.293a1.72 1.72 0 0 1 0 2.424l-7.267 7.293c-.667.67-1.748.67-2.416 0ZM27.58 66a1.717 1.717 0 0 1-.86-2.264l6.505-14.586a1.705 1.705 0 0 1 2.257-.864 1.717 1.717 0 0 1 .861 2.264l-6.505 14.587A1.706 1.706 0 0 1 27.58 66Z" fill="#FD82AC"/><path d="m30.31 55.684-3.591 8.051c-.386.865 0 1.879.861 2.266a1.706 1.706 0 0 0 2.257-.864l3.664-8.214c-1.155 1.075-3.058.356-3.19-1.24Z" fill="#FC3E81"/><path d="M17.36 20.339a1.711 1.711 0 0 1-1.709-1.713 1.71 1.71 0 0 1 2.042-1.682 1.715 1.715 0 0 1-.333 3.395Z" fill="#F948B4"/><path d="M22.57 20.339a1.71 1.71 0 0 1-1.708-1.713 1.711 1.711 0 0 1 2.04-1.682 1.714 1.714 0 0 1-.332 3.395Z" fill="#FECD0A"/><path d="M27.78 20.339a1.712 1.712 0 0 1-1.709-1.713 1.71 1.71 0 0 1 2.042-1.682 1.715 1.715 0 0 1-.334 3.395Z" fill="#39DF74"/><path d="M50.938 19.91H34.552a1.284 1.284 0 0 1-1.282-1.285c0-.71.574-1.286 1.282-1.286h16.386c.707 0 1.28.576 1.28 1.286 0 .71-.573 1.286-1.28 1.286ZM59.189 19.91h-2.734a1.284 1.284 0 0 1-1.281-1.285c0-.71.574-1.286 1.281-1.286h2.734c.707 0 1.28.576 1.28 1.286 0 .71-.573 1.286-1.28 1.286Z" fill="#AEAEFF"/><path d="M10.89 34.802a1.711 1.711 0 0 1-1.707-1.713 1.71 1.71 0 0 1 2.041-1.681 1.715 1.715 0 0 1-.333 3.394Z" fill="#F948B4"/><path d="M16.101 34.802a1.71 1.71 0 0 1-1.708-1.712 1.712 1.712 0 0 1 2.042-1.682 1.714 1.714 0 0 1-.334 3.394Z" fill="#FECD0A"/><path d="M21.311 34.802a1.712 1.712 0 0 1-1.708-1.712 1.71 1.71 0 0 1 2.041-1.682 1.715 1.715 0 0 1-.333 3.394Z" fill="#39DF74"/><path d="M44.468 34.374H28.082c-.707 0-1.28-.575-1.28-1.285s.573-1.286 1.28-1.286h16.386c.708 0 1.281.575 1.281 1.286 0 .71-.573 1.285-1.281 1.285Z" fill="#AEAEFF"/><path d="M52.17 4.161c0-.71.572-1.285 1.28-1.285H41.021c-.708 0-1.281.575-1.281 1.285s.573 1.286 1.281 1.286h12.43a1.283 1.283 0 0 1-1.282-1.286ZM45.7 18.625c0-.71.573-1.286 1.28-1.286H34.553c-.708 0-1.282.576-1.282 1.286 0 .71.574 1.286 1.281 1.286h12.43a1.284 1.284 0 0 1-1.282-1.286ZM39.23 33.089c0-.71.574-1.286 1.282-1.286h-12.43c-.707 0-1.28.575-1.28 1.286 0 .71.573 1.285 1.28 1.285h12.43a1.283 1.283 0 0 1-1.281-1.285Z" fill="#8181FC"/><path d="M52.72 34.374h-2.733a1.283 1.283 0 0 1-1.282-1.285c0-.71.574-1.286 1.282-1.286h2.732c.708 0 1.282.575 1.282 1.286 0 .71-.574 1.285-1.282 1.285Z" fill="#AEAEFF"/><path d="m47.74 55.931-2.154-2.162c.511 1.495-.91 2.94-2.412 2.429l.942.945-6.058 6.08a1.718 1.718 0 0 0 0 2.425c.667.67 1.749.67 2.416 0l7.266-7.293a1.72 1.72 0 0 0 0-2.424Z" fill="#FC3E81"/></svg>