<svg class="bg" width="1356" height="631" fill="none" xmlns="http://www.w3.org/2000/svg"><path opacity=".6" d="M1243.67 521.837c-.31-6.986 7.04-11.759 13.57-8.812l91.49 41.262c6.86 3.093 7.66 12.281 1.43 16.327l-87.14 56.562c-6.23 4.046-14.67-.184-15-7.515l-4.35-97.824Z" stroke="#3097F3" stroke-width="3"/><path opacity=".6" d="M614.044 3.037c10.584-4.073 21.77 4.13 20.625 15.126L621.665 143.02c-1.198 11.51-14.888 17.393-24.342 10.46l-107.192-78.61c-9.453-6.934-7.363-21.323 3.717-25.586L614.044 3.037Z" stroke="#50ACFE" stroke-width="4"/><path d="M11.641 181.426c-5.638 1.542-10.878-3.415-9.434-8.926l14.757-56.323c1.445-5.514 8.496-7.445 12.69-3.477l42.877 40.567c4.195 3.968 2.385 10.86-3.256 12.402L11.64 181.426Z" stroke="#1081E6" stroke-width="3"/></svg>