<svg width="80" height="80" fill="none" xmlns="http://www.w3.org/2000/svg"><path d="m75.017 20.023-38.144-3.128v46.21l38.144-3.128V20.023Z" fill="#4E7693"/><path d="M4.983 20.023v39.954L40 63.105v-46.21L4.983 20.023Z" fill="#07485E"/><path d="M80 6a6 6 0 0 0-6-6H40l-3.127 10.011L40 20.023H80V6ZM80 50.011V29.989H40L36.874 40 40 50.011H80ZM74 80a6 6 0 0 0 6-6V59.977H40L36.874 69.99 40 80H74Z" fill="#80A7C5"/><path d="M0 6a6 6 0 0 1 6-6h34v20.023H0V6ZM0 29.989h40v20.022H0V29.989ZM0 59.977h40V80H6a6 6 0 0 1-6-6V59.977Z" fill="#618BAA"/><path d="M50.949 7.667h21.576v4.688H50.948V7.667ZM50.949 37.656h21.576v4.688H50.948v-4.688ZM50.949 67.645h21.576v4.688H50.948v-4.688Z" fill="#B4D2D7"/><path d="M7.475 7.667h4.983v4.688H7.475V7.667Z" fill="#3FEFEF"/><path d="M17.441 7.667h4.984v4.688H17.44V7.667Z" fill="#FD6096"/><path d="M7.475 37.656h4.983v4.688H7.475v-4.688Z" fill="#3FEFEF"/><path d="M17.441 37.656h4.984v4.688H17.44v-4.688Z" fill="#FD6096"/><path d="M7.475 67.645h4.983v4.688H7.475v-4.688Z" fill="#3FEFEF"/><path d="M17.441 67.645h4.984v4.688H17.44v-4.688Z" fill="#FD6096"/></svg>