 <svg width="47" height="31" viewBox="0 0 47 31" fill="none" xmlns="http://www.w3.org/2000/svg">
<path d="M0.714486 30.52C1.12782 27.8747 1.87182 25.188 2.94648 22.46C4.02115 19.6493 5.26115 16.9627 6.66648 14.4C8.15449 11.7547 9.72515 9.27466 11.3785 6.96C13.1145 4.64533 14.8505 2.57866 16.5865 0.759994L24.3985 3.984C21.5052 8.448 19.1078 12.788 17.2065 17.004C15.3052 21.22 14.0238 25.7253 13.3625 30.52H0.714486ZM23.2825 30.52C23.6958 27.8747 24.4398 25.188 25.5145 22.46C26.5892 19.6493 27.8292 16.9627 29.2345 14.4C30.7225 11.7547 32.2932 9.27466 33.9465 6.96C35.6825 4.64533 37.4185 2.57866 39.1545 0.759994L46.9665 3.984C44.0732 8.448 41.6758 12.788 39.7745 17.004C37.8732 21.22 36.5918 25.7253 35.9305 30.52H23.2825Z" fill="#768292"/>
</svg>
