<svg width="20" height="20" fill="none" xmlns="http://www.w3.org/2000/svg"><path d="M16 0H4C1.8 0 0 1.8 0 4v12c0 2.2 1.8 4 4 4h12c2.2 0 4-1.8 4-4V4c0-2.2-1.8-4-4-4Z" fill="#50ABF1"/><path d="M2.6 14.8c1.3.8 2.9 1.3 4.6 1.3 4.8 0 8.6-3.9 8.6-8.6v-.4c.2-.1 1.2-1 1.5-1.5 0 0-.9.4-1.7.4.1 0 1.2-.7 1.4-1.6 0 0-.6.3-1.5.6-.1 0-.3.1-.4.1-.6-.6-1.3-1-2.2-1-1.7 0-3 1.4-3 3 0 .2 0 .5.1.7-.2 0-3.8-.2-6.2-3.1 0 0-1.4 2 .9 4 0 0-.7 0-1.3-.4 0 0-.2 2.4 2.4 3 0 0-.5.2-1.3.1 0 0 .5 1.9 2.8 2.1-.2.1-2 1.7-4.7 1.3Z" fill="#fff"/></svg>