<svg width="64" height="64" fill="none" xmlns="http://www.w3.org/2000/svg"><g opacity=".9"><path d="m16.064 50.599 15.674-12.23-15.674-12.174V50.6ZM31.738 63.36V38.957L16.173 51.175 31.738 63.36Zm.403 0 15.59-12.185-15.59-12.218V63.36ZM32.11 38.35l15.66 12.25V26.13L32.11 38.35Z" fill="#fff" opacity=".4"/></g><path d="M16.07.672v24.403l15.572-12.23L16.07.672Zm15.668 37.063V13.266l-15.63 12.25 15.63 12.217ZM15.674 25.12V.672L.044 12.826l15.63 12.294Zm0 25.485v-24.41L.044 38.42l15.63 12.186ZM0 13.299v24.404l15.603-12.186L0 13.299Zm47.776 11.642V.672L32.173 12.826 47.776 24.94Zm16.192 12.717v-24.55L48.352 25.471l15.616 12.186Zm-31.827.044 15.59-12.185-15.59-12.218v24.404Zm16.051-11.641v24.403L64 38.28 48.192 26.06ZM48.186.64v24.306L63.73 12.634 48.186.64Z" fill="#fff"/></svg>